<svg xmlns="http://www.w3.org/2000/svg" viewBox="0 0 64 64" fill="none">
  <rect width="64" height="64" rx="14" fill="url(#g)"/>
  <!-- Drill body barrel -->
  <rect x="8" y="26" width="30" height="12" rx="4" fill="white" fill-opacity="0.95"/>
  <!-- Chuck cone -->
  <path d="M38 28 L46 30 L46 34 L38 36 Z" fill="white" fill-opacity="0.85"/>
  <!-- Drill bit -->
  <rect x="46" y="31" width="12" height="2.5" rx="1.25" fill="white" fill-opacity="0.65"/>
  <!-- Handle D-grip -->
  <path d="M14 26 C14 20 18 17 22 17 C26 17 28 20 28 24 L28 26 Z" fill="white" fill-opacity="0.92"/>
  <!-- Grip lines -->
  <line x1="17" y1="20.5" x2="17" y2="25.5" stroke="#2563EB" stroke-width="1.5" stroke-linecap="round" stroke-opacity="0.4"/>
  <line x1="21" y1="18.5" x2="21" y2="25.5" stroke="#2563EB" stroke-width="1.5" stroke-linecap="round" stroke-opacity="0.4"/>
  <line x1="25" y1="19.5" x2="25" y2="25.5" stroke="#2563EB" stroke-width="1.5" stroke-linecap="round" stroke-opacity="0.4"/>
  <!-- Trigger guard -->
  <path d="M16 38 L16 46 C16 47.1 16.9 48 18 48 L24 48 C25.1 48 26 47.1 26 46 L26 38" stroke="white" stroke-width="2.5" stroke-linecap="round" stroke-linejoin="round" fill="none"/>
  <!-- Trigger -->
  <rect x="19" y="36" width="6" height="4" rx="2" fill="white" fill-opacity="0.75"/>
  <!-- Ventilation dots -->
  <circle cx="19" cy="32" r="1.5" fill="#1E3A8A" fill-opacity="0.25"/>
  <circle cx="24" cy="32" r="1.5" fill="#1E3A8A" fill-opacity="0.25"/>
  <circle cx="29" cy="32" r="1.5" fill="#1E3A8A" fill-opacity="0.25"/>
  <!-- Bit spiral lines -->
  <line x1="50" y1="30.5" x2="55" y2="30.5" stroke="white" stroke-width="1" stroke-linecap="round" stroke-opacity="0.5"/>
  <line x1="52" y1="33.5" x2="57" y2="33.5" stroke="white" stroke-width="1" stroke-linecap="round" stroke-opacity="0.5"/>
  <defs>
    <linearGradient id="g" x1="0" y1="0" x2="64" y2="64" gradientUnits="userSpaceOnUse">
      <stop offset="0%" stop-color="#1E3A8A"/>
      <stop offset="60%" stop-color="#2563EB"/>
      <stop offset="100%" stop-color="#14B8A6"/>
    </linearGradient>
  </defs>
</svg>
